<svg id="visual" viewBox="0 0 900 600" width="900" height="600" xmlns="http://www.w3.org/2000/svg" xmlns:xlink="http://www.w3.org/1999/xlink" version="1.1"><g stroke-width="1" stroke-linejoin="bevel"><path d="M461 329L487 366L587 332Z" fill="#297ea6" stroke="#297ea6"></path><path d="M587 332L518 219L461 329Z" fill="#0c2435" stroke="#0c2435"></path><path d="M487 366L598 384L587 332Z" fill="#15384f" stroke="#15384f"></path><path d="M518 219L410 231L461 329Z" fill="#112e42" stroke="#112e42"></path><path d="M598 384L663 361L587 332Z" fill="#15384f" stroke="#15384f"></path><path d="M587 332L631 199L518 219Z" fill="#15384f" stroke="#15384f"></path><path d="M410 231L375 289L461 329Z" fill="#1d4e6b" stroke="#1d4e6b"></path><path d="M461 329L376 430L487 366Z" fill="#1d4e6b" stroke="#1d4e6b"></path><path d="M709 269L631 199L587 332Z" fill="#00101c" stroke="#00101c"></path><path d="M518 219L466 116L410 231Z" fill="#081a28" stroke="#081a28"></path><path d="M376 430L520 478L487 366Z" fill="#19435d" stroke="#19435d"></path><path d="M487 366L520 478L598 384Z" fill="#15384f" stroke="#15384f"></path><path d="M598 384L624 475L663 361Z" fill="#112e42" stroke="#112e42"></path><path d="M663 361L709 269L587 332Z" fill="#19435d" stroke="#19435d"></path><path d="M375 289L376 430L461 329Z" fill="#15384f" stroke="#15384f"></path><path d="M520 478L624 475L598 384Z" fill="#00101c" stroke="#00101c"></path><path d="M663 361L786 332L709 269Z" fill="#00101c" stroke="#00101c"></path><path d="M375 289L328 323L376 430Z" fill="#19435d" stroke="#19435d"></path><path d="M339 209L328 323L375 289Z" fill="#081a28" stroke="#081a28"></path><path d="M638 91L466 116L518 219Z" fill="#205a7a" stroke="#205a7a"></path><path d="M410 231L339 209L375 289Z" fill="#246688" stroke="#246688"></path><path d="M430 118L339 209L410 231Z" fill="#1d4e6b" stroke="#1d4e6b"></path><path d="M466 116L430 118L410 231Z" fill="#277297" stroke="#277297"></path><path d="M376 430L420 526L520 478Z" fill="#277297" stroke="#277297"></path><path d="M630 600L666 507L624 475Z" fill="#19435d" stroke="#19435d"></path><path d="M523 600L624 475L520 478Z" fill="#00101c" stroke="#00101c"></path><path d="M624 475L666 507L663 361Z" fill="#297ea6" stroke="#297ea6"></path><path d="M718 102L638 91L631 199Z" fill="#246688" stroke="#246688"></path><path d="M631 199L638 91L518 219Z" fill="#15384f" stroke="#15384f"></path><path d="M466 116L428 0L430 118Z" fill="#0c2435" stroke="#0c2435"></path><path d="M709 269L732 172L631 199Z" fill="#246688" stroke="#246688"></path><path d="M821 174L732 172L709 269Z" fill="#00101c" stroke="#00101c"></path><path d="M766 424L786 332L663 361Z" fill="#15384f" stroke="#15384f"></path><path d="M666 507L766 424L663 361Z" fill="#205a7a" stroke="#205a7a"></path><path d="M328 323L276 421L376 430Z" fill="#00101c" stroke="#00101c"></path><path d="M376 430L272 493L420 526Z" fill="#081a28" stroke="#081a28"></path><path d="M232 362L276 421L328 323Z" fill="#112e42" stroke="#112e42"></path><path d="M821 174L718 102L732 172Z" fill="#0c2435" stroke="#0c2435"></path><path d="M732 172L718 102L631 199Z" fill="#15384f" stroke="#15384f"></path><path d="M420 526L523 600L520 478Z" fill="#112e42" stroke="#112e42"></path><path d="M697 600L763 478L666 507Z" fill="#246688" stroke="#246688"></path><path d="M666 507L763 478L766 424Z" fill="#15384f" stroke="#15384f"></path><path d="M900 398L900 301L786 332Z" fill="#1d4e6b" stroke="#1d4e6b"></path><path d="M305 0L300 126L430 118Z" fill="#19435d" stroke="#19435d"></path><path d="M430 118L300 126L339 209Z" fill="#297ea6" stroke="#297ea6"></path><path d="M199 312L232 362L328 323Z" fill="#112e42" stroke="#112e42"></path><path d="M199 312L328 323L339 209Z" fill="#0c2435" stroke="#0c2435"></path><path d="M523 600L630 600L624 475Z" fill="#297ea6" stroke="#297ea6"></path><path d="M208 506L272 493L276 421Z" fill="#15384f" stroke="#15384f"></path><path d="M276 421L272 493L376 430Z" fill="#19435d" stroke="#19435d"></path><path d="M420 526L401 600L523 600Z" fill="#246688" stroke="#246688"></path><path d="M634 0L525 0L638 91Z" fill="#112e42" stroke="#112e42"></path><path d="M638 91L525 0L466 116Z" fill="#0c2435" stroke="#0c2435"></path><path d="M272 493L401 600L420 526Z" fill="#0c2435" stroke="#0c2435"></path><path d="M194 180L199 312L339 209Z" fill="#246688" stroke="#246688"></path><path d="M232 362L208 506L276 421Z" fill="#19435d" stroke="#19435d"></path><path d="M525 0L428 0L466 116Z" fill="#112e42" stroke="#112e42"></path><path d="M786 332L821 174L709 269Z" fill="#277297" stroke="#277297"></path><path d="M900 301L821 174L786 332Z" fill="#00101c" stroke="#00101c"></path><path d="M730 0L634 0L638 91Z" fill="#1d4e6b" stroke="#1d4e6b"></path><path d="M730 0L638 91L718 102Z" fill="#00101c" stroke="#00101c"></path><path d="M630 600L697 600L666 507Z" fill="#297ea6" stroke="#297ea6"></path><path d="M300 126L194 180L339 209Z" fill="#1d4e6b" stroke="#1d4e6b"></path><path d="M226 88L194 180L300 126Z" fill="#00101c" stroke="#00101c"></path><path d="M119 477L208 506L232 362Z" fill="#00101c" stroke="#00101c"></path><path d="M272 493L269 600L401 600Z" fill="#15384f" stroke="#15384f"></path><path d="M305 0L226 88L300 126Z" fill="#081a28" stroke="#081a28"></path><path d="M824 71L730 0L718 102Z" fill="#112e42" stroke="#112e42"></path><path d="M900 398L766 424L900 499Z" fill="#00101c" stroke="#00101c"></path><path d="M900 398L786 332L766 424Z" fill="#19435d" stroke="#19435d"></path><path d="M821 174L824 71L718 102Z" fill="#19435d" stroke="#19435d"></path><path d="M697 600L774 600L763 478Z" fill="#246688" stroke="#246688"></path><path d="M428 0L305 0L430 118Z" fill="#15384f" stroke="#15384f"></path><path d="M900 113L824 71L821 174Z" fill="#081a28" stroke="#081a28"></path><path d="M208 506L269 600L272 493Z" fill="#246688" stroke="#246688"></path><path d="M900 499L766 424L763 478Z" fill="#277297" stroke="#277297"></path><path d="M900 301L900 188L821 174Z" fill="#297ea6" stroke="#297ea6"></path><path d="M774 600L900 499L763 478Z" fill="#081a28" stroke="#081a28"></path><path d="M900 188L900 113L821 174Z" fill="#19435d" stroke="#19435d"></path><path d="M824 71L826 0L730 0Z" fill="#112e42" stroke="#112e42"></path><path d="M67 231L98 268L194 180Z" fill="#15384f" stroke="#15384f"></path><path d="M194 180L98 268L199 312Z" fill="#112e42" stroke="#112e42"></path><path d="M199 312L97 371L232 362Z" fill="#277297" stroke="#277297"></path><path d="M98 268L97 371L199 312Z" fill="#205a7a" stroke="#205a7a"></path><path d="M208 506L185 600L269 600Z" fill="#0c2435" stroke="#0c2435"></path><path d="M900 0L826 0L824 71Z" fill="#246688" stroke="#246688"></path><path d="M97 371L119 477L232 362Z" fill="#081a28" stroke="#081a28"></path><path d="M119 477L185 600L208 506Z" fill="#297ea6" stroke="#297ea6"></path><path d="M77 85L67 231L194 180Z" fill="#246688" stroke="#246688"></path><path d="M98 268L0 280L97 371Z" fill="#19435d" stroke="#19435d"></path><path d="M0 468L96 600L119 477Z" fill="#0c2435" stroke="#0c2435"></path><path d="M77 85L194 180L226 88Z" fill="#297ea6" stroke="#297ea6"></path><path d="M774 600L900 600L900 499Z" fill="#297ea6" stroke="#297ea6"></path><path d="M305 0L161 0L226 88Z" fill="#205a7a" stroke="#205a7a"></path><path d="M900 113L900 0L824 71Z" fill="#0c2435" stroke="#0c2435"></path><path d="M161 0L77 85L226 88Z" fill="#205a7a" stroke="#205a7a"></path><path d="M0 468L119 477L97 371Z" fill="#081a28" stroke="#081a28"></path><path d="M119 477L96 600L185 600Z" fill="#15384f" stroke="#15384f"></path><path d="M0 160L0 280L67 231Z" fill="#00101c" stroke="#00101c"></path><path d="M67 231L0 280L98 268Z" fill="#081a28" stroke="#081a28"></path><path d="M0 280L0 386L97 371Z" fill="#1d4e6b" stroke="#1d4e6b"></path><path d="M77 85L0 160L67 231Z" fill="#081a28" stroke="#081a28"></path><path d="M0 76L0 160L77 85Z" fill="#15384f" stroke="#15384f"></path><path d="M0 386L0 468L97 371Z" fill="#1d4e6b" stroke="#1d4e6b"></path><path d="M161 0L75 0L77 85Z" fill="#081a28" stroke="#081a28"></path><path d="M75 0L0 76L77 85Z" fill="#19435d" stroke="#19435d"></path><path d="M0 468L0 600L96 600Z" fill="#297ea6" stroke="#297ea6"></path><path d="M75 0L0 0L0 76Z" fill="#15384f" stroke="#15384f"></path></g></svg>